<svg xmlns="http://www.w3.org/2000/svg" xmlns:xlink="http://www.w3.org/1999/xlink" width="240" height="40.944" viewBox="0 0 240 40.944">
  <defs>
    <clipPath id="clip-path">
      <rect id="Rectangle_15134" data-name="Rectangle 15134" width="240" height="40.944" fill="none"/>
    </clipPath>
  </defs>
  <g id="Group_11110" data-name="Group 11110" clip-path="url(#clip-path)">
    <path id="Path_13133" data-name="Path 13133" d="M4.756,70.93l2.772,7.527h-2l-.373-1.2H2.379l-.374,1.2H0L2.795,70.93ZM3.744,72.721c-.1.384-.2.778-.309,1.162-.16.565-.448,1.45-.618,2.015H4.724Z" transform="translate(-0.001 -39.422)" fill="#8c1d40"/>
    <path id="Path_13134" data-name="Path 13134" d="M19.966,75.843a2.58,2.58,0,0,1,1.61-.64v1.45l-.544.085c-.789.139-1.023.256-1.023.96v3.134H18.366V75.256h1.6Z" transform="translate(-10.207 -41.796)" fill="#8c1d40"/>
    <path id="Path_13135" data-name="Path 13135" d="M27.343,70.906h1.621v1.268H27.343Zm0,1.962h1.621v5.576H27.343Z" transform="translate(-15.197 -39.408)" fill="#8c1d40"/>
    <path id="Path_13136" data-name="Path 13136" d="M33.327,75.346h4.766V76.6l-2.964,3.028h2.964v1.279H33.007V79.675l3.006-3.07H33.327Z" transform="translate(-18.345 -41.876)" fill="#8c1d40"/>
    <path id="Path_13137" data-name="Path 13137" d="M51.588,77.9a2.991,2.991,0,1,1-2.772-2.943A2.782,2.782,0,0,1,51.588,77.9m-4.052-1.1a2.02,2.02,0,0,0-.277,1.087c0,.885.426,1.663,1.343,1.663.885,0,1.322-.714,1.322-1.589a1.885,1.885,0,0,0-.458-1.4,1.192,1.192,0,0,0-.96-.31,1.107,1.107,0,0,0-.97.544" transform="translate(-25.348 -41.654)" fill="#8c1d40"/>
    <path id="Path_13138" data-name="Path 13138" d="M62.451,75.675a1.59,1.59,0,0,1,.554-.437,2.7,2.7,0,0,1,1.013-.2,2.116,2.116,0,0,1,.992.223c.586.31.736.811.736,1.674v3.806H64.115V77.6a2.225,2.225,0,0,0-.075-.832.746.746,0,0,0-.736-.426c-.864,0-.864.693-.864,1.386v3.006H60.8V75.184h1.652Z" transform="translate(-33.791 -41.703)" fill="#8c1d40"/>
    <path id="Path_13139" data-name="Path 13139" d="M73.945,76.737a1.552,1.552,0,0,1,.587-1.237,2.861,2.861,0,0,1,1.823-.49c.682,0,2.335.16,2.335,1.6v3.241c0,.6.032.682.16.874H77.24v-.512a2.619,2.619,0,0,1-1.706.661,1.689,1.689,0,0,1-1.823-1.7,1.8,1.8,0,0,1,1.173-1.6,14.262,14.262,0,0,1,2.2-.512v-.3c-.021-.256-.043-.682-.629-.682-.725,0-.821.447-.864.65Zm2.079,1.674c-.277.107-.7.267-.7.693a.6.6,0,0,0,.618.565,1.076,1.076,0,0,0,.565-.181c.544-.341.565-.853.576-1.429Z" transform="translate(-40.967 -41.689)" fill="#8c1d40"/>
    <path id="Path_13140" data-name="Path 13140" d="M92.275,75.97a2.372,2.372,0,0,0,.725.586,3.094,3.094,0,0,0,1.45.363c.747,0,1.386-.352,1.386-.874,0-.6-.757-.693-1.312-.768-.416-.053-.832-.107-1.237-.191-.458-.1-2.026-.426-2.026-2.047,0-1.941,1.727-2.516,3.028-2.516a4.59,4.59,0,0,1,3.326,1.429l-1.386.991a3.448,3.448,0,0,0-.746-.608A2.707,2.707,0,0,0,94.258,72c-.746,0-1.119.426-1.119.789,0,.576.64.661.96.7a14.682,14.682,0,0,1,2.3.447,1.866,1.866,0,0,1,1.3,1.845,2.506,2.506,0,0,1-.6,1.6A3.618,3.618,0,0,1,94.279,78.4a4.009,4.009,0,0,1-3.433-1.525Z" transform="translate(-50.491 -39.194)" fill="#8c1d40"/>
    <path id="Path_13141" data-name="Path 13141" d="M107.568,71.722H109.2V73.46h1.077v1h-1.087v2.506c-.011.341-.011.629.426.629l.586-.021v1.279a5.247,5.247,0,0,1-.864.085A1.7,1.7,0,0,1,107.8,78.4a2.152,2.152,0,0,1-.235-1.258V74.452h-.81v-1h.81Z" transform="translate(-59.334 -39.862)" fill="#8c1d40"/>
    <path id="Path_13142" data-name="Path 13142" d="M115.992,76.737a1.552,1.552,0,0,1,.587-1.237,2.861,2.861,0,0,1,1.823-.49c.682,0,2.335.16,2.335,1.6v3.241c0,.6.032.682.16.874h-1.61v-.512a2.619,2.619,0,0,1-1.706.661,1.689,1.689,0,0,1-1.823-1.7,1.8,1.8,0,0,1,1.173-1.6,14.261,14.261,0,0,1,2.2-.512v-.3c-.021-.256-.043-.682-.629-.682-.725,0-.821.447-.864.65Zm2.079,1.674c-.277.107-.7.267-.7.693a.6.6,0,0,0,.618.565,1.075,1.075,0,0,0,.565-.181c.544-.341.565-.853.576-1.429Z" transform="translate(-64.336 -41.689)" fill="#8c1d40"/>
    <path id="Path_13143" data-name="Path 13143" d="M129,71.722h1.631V73.46h1.077v1H130.62v2.506c-.011.341-.011.629.426.629l.586-.021v1.279a5.247,5.247,0,0,1-.864.085,1.7,1.7,0,0,1-1.535-.544A2.152,2.152,0,0,1,129,77.138V74.452h-.81v-1H129Z" transform="translate(-71.245 -39.862)" fill="#8c1d40"/>
    <path id="Path_13144" data-name="Path 13144" d="M142.656,79.267a4.339,4.339,0,0,1-.672.832,3.055,3.055,0,0,1-2.1.789,2.659,2.659,0,0,1-2.815-2.879,2.784,2.784,0,0,1,2.858-3.07,2.7,2.7,0,0,1,2,.8,3.727,3.727,0,0,1,.789,2.5h-3.977a1.253,1.253,0,0,0,1.269,1.386,1.473,1.473,0,0,0,1.407-.981Zm-1.631-2.058a1.323,1.323,0,0,0-.309-.789,1.157,1.157,0,0,0-.8-.31,1.129,1.129,0,0,0-.832.363,1.447,1.447,0,0,0-.331.736Z" transform="translate(-76.18 -41.65)" fill="#8c1d40"/>
    <path id="Path_13145" data-name="Path 13145" d="M162.312,70.93v4.2a3.97,3.97,0,0,1-.437,2.132,3.394,3.394,0,0,1-2.8,1.365,4,4,0,0,1-1.748-.4c-1.45-.747-1.45-2.069-1.439-3.092v-4.2h1.9v4.691a2.027,2.027,0,0,0,.139.938,1.358,1.358,0,0,0,1.215.512c1.28,0,1.28-.874,1.29-1.461V70.93Z" transform="translate(-86.636 -39.422)" fill="#8c1d40"/>
    <path id="Path_13146" data-name="Path 13146" d="M174.41,75.675a1.59,1.59,0,0,1,.554-.437,2.7,2.7,0,0,1,1.013-.2,2.116,2.116,0,0,1,.992.223c.586.31.736.811.736,1.674v3.806h-1.631V77.6a2.226,2.226,0,0,0-.075-.832.746.746,0,0,0-.736-.426c-.864,0-.864.693-.864,1.386v3.006h-1.642V75.184h1.652Z" transform="translate(-96.015 -41.703)" fill="#8c1d40"/>
    <path id="Path_13147" data-name="Path 13147" d="M186.292,70.906h1.621v1.268h-1.621Zm0,1.962h1.621v5.576h-1.621Z" transform="translate(-103.538 -39.408)" fill="#8c1d40"/>
    <path id="Path_13148" data-name="Path 13148" d="M191.5,75.346h1.727a34.688,34.688,0,0,1,.981,4.052c.224-1.237.255-1.375.586-2.687l.341-1.365h1.684l-1.8,5.566H193.3Z" transform="translate(-106.432 -41.876)" fill="#8c1d40"/>
    <path id="Path_13149" data-name="Path 13149" d="M209.495,79.267a4.339,4.339,0,0,1-.672.832,3.055,3.055,0,0,1-2.1.789,2.659,2.659,0,0,1-2.815-2.879,2.784,2.784,0,0,1,2.858-3.07,2.7,2.7,0,0,1,2,.8,3.727,3.727,0,0,1,.789,2.5h-3.977a1.253,1.253,0,0,0,1.269,1.386,1.472,1.472,0,0,0,1.407-.981Zm-1.631-2.058a1.323,1.323,0,0,0-.309-.789,1.157,1.157,0,0,0-.8-.31,1.129,1.129,0,0,0-.832.363,1.447,1.447,0,0,0-.331.736Z" transform="translate(-113.328 -41.65)" fill="#8c1d40"/>
    <path id="Path_13150" data-name="Path 13150" d="M220.195,75.843a2.58,2.58,0,0,1,1.61-.64v1.45l-.544.085c-.789.139-1.023.256-1.023.96v3.134H218.6V75.256h1.6Z" transform="translate(-121.491 -41.796)" fill="#8c1d40"/>
    <path id="Path_13151" data-name="Path 13151" d="M227.238,78.808a2.378,2.378,0,0,0,1.621.768c.394,0,.992-.128.992-.544a.34.34,0,0,0-.213-.32,3.545,3.545,0,0,0-.949-.213,6.272,6.272,0,0,1-.746-.171,2.086,2.086,0,0,1-.928-.48A1.5,1.5,0,0,1,226.6,76.8c0-.917.789-1.866,2.345-1.866a4.079,4.079,0,0,1,2.485.832l-1.013.938a2.33,2.33,0,0,0-1.4-.554c-.64,0-.789.256-.789.416,0,.32.352.384.885.48,1.12.2,2.421.5,2.421,1.824s-1.322,1.951-2.634,1.951a3.666,3.666,0,0,1-2.7-1.077Z" transform="translate(-125.72 -41.649)" fill="#8c1d40"/>
    <path id="Path_13152" data-name="Path 13152" d="M239.836,70.906h1.621v1.268h-1.621Zm0,1.962h1.621v5.576h-1.621Z" transform="translate(-133.296 -39.408)" fill="#8c1d40"/>
    <path id="Path_13153" data-name="Path 13153" d="M246.07,71.722H247.7V73.46h1.077v1h-1.087v2.506c-.011.341-.011.629.426.629l.586-.021v1.279a5.247,5.247,0,0,1-.864.085A1.7,1.7,0,0,1,246.3,78.4a2.152,2.152,0,0,1-.235-1.258V74.452h-.81v-1h.81Z" transform="translate(-136.311 -39.862)" fill="#8c1d40"/>
    <path id="Path_13154" data-name="Path 13154" d="M259.855,75.346l-1.963,6.014a2.779,2.779,0,0,1-.522,1.012,1.422,1.422,0,0,1-1.183.448H255v-1.3h.576c.266-.01.682-.01.682-.405a1.52,1.52,0,0,0-.075-.394l-1.663-5.374h1.749l.916,3.988.917-3.988Z" transform="translate(-141.459 -41.876)" fill="#8c1d40"/>
    <path id="Path_13155" data-name="Path 13155" d="M54.911,24.566s-.384-.426-1.02-1.114a2.6,2.6,0,0,1-.745-1.744V1.4H45.46V17.642a2.184,2.184,0,0,1-2.427,1.9,1.738,1.738,0,0,1-1.885-1.855V1.4H33.662s-3.125,0-5.274,0c-4.1,0-7.963.63-9.272,4.04l-.772-3.02A1.575,1.575,0,0,0,16.867,1.4H3.488c-.2,0-.267.063-.168.2,0,0,.363.346,1.024,1.1A2.907,2.907,0,0,1,4.9,5.145L0,24.759H7.134l1.025-4.306h6.886l1.072,4.306h9.393c3.855,0,6.991-.393,8.537-2.8,1.156,2.2,3.645,3.225,8.036,2.847a4.658,4.658,0,0,0,3.667-1.986l.3.946a1.609,1.609,0,0,0,1.525.993h7.174c.2,0,.258-.058.159-.2M9.23,16.2,11.6,6.607,13.988,16.2Z" transform="translate(0 -0.778)" fill="#8c1d40"/>
    <path id="Path_13156" data-name="Path 13156" d="M122.9,3.169a.863.863,0,1,1,.863-.86.858.858,0,0,1-.863.86m0-1.84a.977.977,0,1,0,.979.982.968.968,0,0,0-.979-.982m-.359.424h.346a.483.483,0,0,1,.336.078.331.331,0,0,1,.12.267.3.3,0,0,1-.214.3l.241.441h-.232l-.215-.4h-.181v.4h-.2Zm.2.175v.339h.071c.069,0,.1,0,.133,0a.169.169,0,0,0,.191-.167.155.155,0,0,0-.086-.146.5.5,0,0,0-.215-.023Z" transform="translate(-67.762 -0.739)" fill="#8c1d40"/>
    <path id="Path_13157" data-name="Path 13157" d="M40.71,11.569c-.042.21-.093.494-.123.693L39.247,11.02a.146.146,0,0,1,.175-.232Z" transform="translate(-21.786 -5.983)" fill="#ffc627"/>
    <path id="Path_13158" data-name="Path 13158" d="M38.908,15.467c0,.288.012.677.044.971L36.36,14.748a.143.143,0,0,1,.131-.253Z" transform="translate(-20.171 -8.05)" fill="#ffc627"/>
    <path id="Path_13159" data-name="Path 13159" d="M38.314,20.657a5.49,5.49,0,0,1-.438-1.247l-3.556-.8a.141.141,0,0,0-.088.266Z" transform="translate(-18.979 -10.34)" fill="#ffc627"/>
    <path id="Path_13160" data-name="Path 13160" d="M37.448,23.3c1.2,2.2,3.739,3.072,5.966,3.845,2.169.746,4.034,1.391,4.034,3.063a1.532,1.532,0,0,1-.537,1.165,4.46,4.46,0,0,1-3.325.8,5.407,5.407,0,0,1-1.6-.478l-2.878,3.569a.152.152,0,0,1-.255-.163l1.972-3.966a.048.048,0,0,0-.075-.057l-3.5,3.046a.15.15,0,0,1-.218-.2l2.713-3.6a.045.045,0,0,0-.059-.065l-4.054,2.465a.146.146,0,0,1-.175-.231l3.386-3.143a.042.042,0,0,0-.044-.069l-4.479,1.8a.143.143,0,0,1-.131-.253l3.942-2.567a.041.041,0,0,0-.032-.075l-4.757,1.072a.141.141,0,0,1-.088-.267l4.4-1.923a.038.038,0,0,0-.018-.073l-4.9.314a.14.14,0,0,1-.044-.275l4.706-1.206a.038.038,0,0,0-.006-.076l-4.883-.455a.139.139,0,0,1,0-.276l4.894-.456a.037.037,0,0,0,.005-.072L32.7,23.276A.14.14,0,0,1,32.748,23Z" transform="translate(-18.005 -12.783)" fill="#ffc627"/>
    <path id="Path_13161" data-name="Path 13161" d="M77.661,45.036s.161-.394.245-.672L78.987,45.8a.149.149,0,0,1-.217.2Z" transform="translate(-43.163 -24.657)" fill="#ffc627"/>
    <path id="Path_13162" data-name="Path 13162" d="M78.781,40.572s.089-.651.106-1.008l2.294,2.128a.146.146,0,0,1-.175.231Z" transform="translate(-43.785 -21.989)" fill="#ffc627"/>
    <path id="Path_13163" data-name="Path 13163" d="M78.974,36.541a7.847,7.847,0,0,0-.081-1.241l3.613,2.353a.144.144,0,0,1-.132.254Z" transform="translate(-43.847 -19.619)" fill="#ffc627"/>
    <path id="Path_13164" data-name="Path 13164" d="M65.942,18.2h0a5.457,5.457,0,0,0-2.516-3.626,19.007,19.007,0,0,0-4.014-1.9,15.886,15.886,0,0,1-2.632-1.167,1.947,1.947,0,0,1-1.119-1.633,1.538,1.538,0,0,1,.458-1.145,3.937,3.937,0,0,1,2.774-.736,8.72,8.72,0,0,1,2.858.635L64.681,5a.152.152,0,0,1,.255.163L62.942,9.174A.038.038,0,0,0,63,9.22l3.541-3.082a.149.149,0,0,1,.217.2L64.023,9.976a.038.038,0,0,0,.051.056l4.072-2.476a.147.147,0,0,1,.176.234l-3.389,3.146a.038.038,0,0,0,.04.064l4.489-1.8a.144.144,0,0,1,.132.254l-3.952,2.573a.038.038,0,0,0,.029.07l4.774-1.076a.141.141,0,0,1,.088.266l-4.4,1.923a.039.039,0,0,0,.018.074l4.889-.314a.141.141,0,0,1,.044.277l-4.7,1.2a.038.038,0,0,0,.006.076l4.877.454a.139.139,0,0,1,0,.278l-4.877.454a.038.038,0,0,0-.006.076l4.7,1.2a.141.141,0,0,1-.044.277l-4.889-.313a.038.038,0,0,0-.018.073l4.4,1.923a.141.141,0,0,1-.088.267Z" transform="translate(-30.935 -2.747)" fill="#ffc627"/>
    <path id="Path_13165" data-name="Path 13165" d="M146.339,1.266c3.475,0,8.967.894,8.967,7.578,0,3.971-2.25,5.559-4.8,6.452l5.394,9.332h-6.42l-4.666-8.339h-3.64v8.339h-5.89V1.266Zm-5.2,10.689h4.831c3.342,0,3.508-2.515,3.508-3.243,0-3.044-2.449-3.11-3.474-3.11h-4.865Z" transform="translate(-75.19 -0.704)" fill="#231f20"/>
    <path id="Path_13166" data-name="Path 13166" d="M186.373,24.006v.2a3.886,3.886,0,0,0,3.938,4.1,4.617,4.617,0,0,0,4.368-3.078l3.838,1.986a9.728,9.728,0,0,1-8.6,5c-5.261,0-8.736-3.342-8.736-8.935,0-4.335,2.118-9.5,8.868-9.5,6.486,0,8.67,5.2,8.67,9.994v.231Zm7.082-3.177a3.331,3.331,0,0,0-3.442-3.408,3.753,3.753,0,0,0-3.64,3.408Z" transform="translate(-100.695 -7.659)" fill="#231f20"/>
    <path id="Path_13167" data-name="Path 13167" d="M233.672,31.667V30.112c-1.357.894-2.647,2.019-5.295,2.019-3.938,0-5.658-2.779-5.658-5.262a5.557,5.557,0,0,1,3.64-4.964,41.1,41.1,0,0,1,6.817-1.588v-.96a1.828,1.828,0,0,0-1.953-2.085c-2.15,0-2.548,1.258-2.68,2.019h-5.1c0-3.806,3.508-5.361,7.28-5.361,2.978,0,7.446.794,7.446,4.964V28.986c0,1.489.066,2.052.5,2.68ZM229.9,24.486c-1.754.563-2.184,1.39-2.184,2.151a1.843,1.843,0,0,0,1.953,1.754c1.985,0,3.508-1.787,3.508-4.236v-.761Z" transform="translate(-123.783 -7.742)" fill="#231f20"/>
    <rect id="Rectangle_15133" data-name="Rectangle 15133" width="5.063" height="23.362" transform="translate(117.501 0.563)" fill="#231f20"/>
    <path id="Path_13168" data-name="Path 13168" d="M287.769,14.393V16.18a5.99,5.99,0,0,1,4.864-2.25,5.818,5.818,0,0,1,4.832,2.019,7.652,7.652,0,0,1,5.129-2.019c3.177,0,5.295,1.655,5.295,5.063V31.667h-5.063v-9.96c0-2.316-.563-3.64-2.383-3.64s-2.614,1.158-2.614,3.243V31.667h-5.063V21.342c0-2.415-.894-3.243-2.482-3.243-2.283,0-2.548,2.118-2.548,3.574v9.994h-5.03V14.393Z" transform="translate(-157.123 -7.742)" fill="#231f20"/>
    <path id="Path_13169" data-name="Path 13169" d="M359.091,7.512A8.264,8.264,0,0,0,352.969,4.6c-2.383,0-3.475,1.39-3.475,2.482,0,1.257.993,1.853,2.979,2.151l2.58.364c6.089.86,8.6,2.714,8.6,6.717,0,4.93-3.938,8.141-10.623,8.141-5.46,0-8.273-1.953-10.655-4.732l4.434-2.813a8.955,8.955,0,0,0,6.751,2.945c1.72,0,4.3-.761,4.3-2.713,0-1.655-1.985-2.118-4.07-2.383l-2.68-.364c-4.1-.562-7.446-2.481-7.446-6.585C343.67,3.21,347.079,0,353.1,0a14.144,14.144,0,0,1,10.291,4.434Z" transform="translate(-190.289)" fill="#231f20"/>
    <path id="Path_13170" data-name="Path 13170" d="M398.426,14.477v1.688c.364-.563,1.787-2.085,4.831-2.085,4.964,0,7.511,4.2,7.511,9,0,5.559-2.911,9-7.511,9a6.98,6.98,0,0,1-4.236-1.456V37.74h-5.162V14.477ZM402.3,28.408c2.615,0,3.574-2.912,3.574-5.593,0-1.158-.364-5.129-3.441-5.129-1.886,0-3.64,1.655-3.64,5.659,0,2.879,1.158,5.063,3.508,5.063" transform="translate(-218.9 -7.825)" fill="#231f20"/>
    <path id="Path_13171" data-name="Path 13171" d="M445.293,31.667V30.112c-1.357.894-2.647,2.019-5.295,2.019-3.938,0-5.658-2.779-5.658-5.262a5.557,5.557,0,0,1,3.64-4.964,41.11,41.11,0,0,1,6.817-1.588v-.96a1.828,1.828,0,0,0-1.952-2.085c-2.151,0-2.548,1.258-2.68,2.019h-5.1c0-3.806,3.507-5.361,7.279-5.361,2.979,0,7.446.794,7.446,4.964V28.986c0,1.489.066,2.052.5,2.68Zm-3.772-7.181c-1.753.563-2.184,1.39-2.184,2.151a1.842,1.842,0,0,0,1.952,1.754c1.985,0,3.508-1.787,3.508-4.236v-.761Z" transform="translate(-241.398 -7.742)" fill="#231f20"/>
    <path id="Path_13172" data-name="Path 13172" d="M480.931,14.725v1.787a6.378,6.378,0,0,1,2.019-1.29,8.764,8.764,0,0,1,2.978-.7v4.5l-1.688.264c-2.68.43-3.177,1.125-3.177,2.978V32H476V14.725Z" transform="translate(-264.552 -8.073)" fill="#231f20"/>
    <path id="Path_13173" data-name="Path 13173" d="M512.525,24.629l-4.434-7.446-2.184,2.085v5.36h-4.964V1.266h5V13.279l5.593-5.923h6.122L511.7,13.51l6.718,11.118Z" transform="translate(-278.415 -0.704)" fill="#231f20"/>
  </g>
</svg>
